<?xml version="1.0" encoding="UTF-8" standalone="no"?>
<!-- Created with Inkscape (http://www.inkscape.org/) -->

<svg
   width="32"
   height="32"
   viewBox="0 0 8.4666665 8.4666666"
   version="1.1"
   id="svg1"
   xml:space="preserve"
   inkscape:version="1.4-beta2 (9aaf4f34, 2024-07-30)"
   sodipodi:docname="cursor.svg"
   xmlns:inkscape="http://www.inkscape.org/namespaces/inkscape"
   xmlns:sodipodi="http://sodipodi.sourceforge.net/DTD/sodipodi-0.dtd"
   xmlns:xlink="http://www.w3.org/1999/xlink"
   xmlns="http://www.w3.org/2000/svg"
   xmlns:svg="http://www.w3.org/2000/svg"><sodipodi:namedview
     id="namedview1"
     pagecolor="#505050"
     bordercolor="#eeeeee"
     borderopacity="1"
     inkscape:showpageshadow="0"
     inkscape:pageopacity="0"
     inkscape:pagecheckerboard="0"
     inkscape:deskcolor="#505050"
     inkscape:document-units="mm"
     inkscape:zoom="12.087093"
     inkscape:cx="26.391788"
     inkscape:cy="27.30185"
     inkscape:window-width="1920"
     inkscape:window-height="945"
     inkscape:window-x="1440"
     inkscape:window-y="153"
     inkscape:window-maximized="1"
     inkscape:current-layer="layer1" /><defs
     id="defs1"><linearGradient
       id="linearGradient6"
       inkscape:collect="always"><stop
         style="stop-color:#b4aeff;stop-opacity:1;"
         offset="0"
         id="stop6" /><stop
         style="stop-color:#554ac4;stop-opacity:1;"
         offset="1"
         id="stop7" /></linearGradient><radialGradient
       inkscape:collect="always"
       xlink:href="#linearGradient6"
       id="radialGradient7"
       cx="1.8697715"
       cy="2.9476817"
       fx="1.8697715"
       fy="2.9476817"
       r="3.6566231"
       gradientTransform="matrix(3.9577706,1.0942693,-0.75003023,2.7127212,-2.5912089,-8.2086591)"
       gradientUnits="userSpaceOnUse" /></defs><g
     inkscape:label="Layer 1"
     inkscape:groupmode="layer"
     id="layer1"><path
       d="M 0.80201823,0.08991699 C 0.7121614,0.09557134 0.61673935,0.10966323 0.54053548,0.15761312 0.44897222,0.21522763 0.37642632,0.30736454 0.33124593,0.40565999 0.27104701,0.5366301 0.27127403,0.68866344 0.26199951,0.83250732 0.23813593,1.2026216 0.28001066,1.5741213 0.29765625,1.9445841 c 0.024159,0.5072103 0.0632045,1.0136032 0.0961182,1.5203207 0.0362444,0.5579966 0.070246,1.11616 0.1116211,1.6737996 0.0381856,0.5146525 0.0806947,1.0289916 0.12609049,1.5430583 0.0197257,0.2233761 0.014746,0.4508591 0.063562,0.6697266 C 0.73348944,7.523842 0.77824894,7.7016948 0.8738485,7.8501668 0.9513366,7.9705106 1.0582507,8.0771742 1.18184,8.1493734 1.2965804,8.2164034 1.4313767,8.2599797 1.5642456,8.262028 1.6854776,8.263898 1.8070453,8.222904 1.9161621,8.170044 1.9462681,8.15546 1.9730511,8.133673 1.9962611,8.109583 2.2814972,7.8135347 2.4703981,7.4378193 2.7021611,7.0982752 3.0415518,6.6010513 3.2001461,5.924461 3.7046834,5.5960409 4.0645363,5.3618007 4.5461239,5.4134133 4.9738566,5.3758993 c 0.2663185,-0.023357 0.5347128,0.00177 0.8020182,-0.00258 0.2701759,-0.0044 0.5430293,0.016078 0.8102865,-0.023771 0.4120603,-0.058521 0.6848322,-0.14227 0.9079549,-0.4811116 0.052882,-0.11333 0.078192,-0.242968 0.073381,-0.3679362 C 7.5624239,4.368734 7.523609,4.2354414 7.4605265,4.1196452 7.3876102,3.9857978 7.273637,3.8759805 7.1577026,3.7770304 7.0499688,3.6850795 6.9194852,3.6237115 6.7990682,3.5491374 6.2729525,3.2233146 5.7386703,2.9108626 5.2095011,2.5900228 4.6758501,2.2664656 4.1423143,1.9427047 3.6106323,1.615922 3.1639318,1.3413707 2.7238335,1.0560234 2.273763,0.78703206 2.0023158,0.62479755 1.7371971,0.44944349 1.451591,0.31367594 1.2733828,0.22896174 1.0900134,0.1504434 0.89865316,0.10231934 0.86715799,0.0943988 0.83442997,0.08787744 0.80201823,0.08991699 Z"
       style="fill:url(#radialGradient7);fill-rule:evenodd;stroke-width:0.0881063;stroke-linecap:round;stroke-linejoin:round;stroke-dashoffset:2529.21"
       id="path6"
       sodipodi:nodetypes="aaaaaaaaaaaaaaaaaaaaaaaaaaaaaa" /></g></svg>
